@startuml university

title "Диаграмма классов "Университет""


enum LevelEducation {
    ' Уровень образования
    id: Integer
    name: String
}

class Faculty {
    ' Факультет
    id: Integer
    name: String
    short_name: String
    level_education_id: Integer
}

class Department {
    ' Кафедра
    id: Integer
    name: String
    short_name: String
}

class Campus {
    ' Корпус
    id: Integer
    address: String
}

class Audience {
    ' Аудитория
    id: Integer
    number: String
    extra_settings: Json
}

' Объявление отношений подсистемы
Audience *-- Campus
Department *-- Faculty
Faculty *-- LevelEducation

@enduml
